<svg xmlns="http://www.w3.org/2000/svg" style="background-color: #000000;" data-name="Line Set" viewBox="0 0 100 125" x="0px" y="0px">
  <title>few-clouds-day</title>
  <path fill="#FFFFFF" d="M85.19921,63.36516a6.41167,6.41167,0,0,0-2.29211-1.78651c1.53366-.77532,2.882-1.70226,3.23593-3.23593.42135-1.854-.94382-3.573-2.27534-5.22478C82.99135,52.02249,82.01379,50.79209,82.01379,50s.97756-2.02249,1.85389-3.11794c1.33153-1.65176,2.69669-3.37079,2.27534-5.22478-.43822-1.92137-2.46071-2.89883-4.41572-3.82577-1.21354-.58995-2.61234-1.264-2.9158-1.9045-.337-.69107.01687-2.20786.32023-3.55626.472-2.08987.96069-4.24712-.25275-5.74715-1.19667-1.5169-3.40453-1.5169-5.56178-1.5169h-.03374c-1.36516,0-2.89893-.01687-3.48878-.47186-.57308-.45509-.91008-1.97188-1.21343-3.30341-.48883-2.10674-.97756-4.28086-2.73043-5.12356-1.7359-.8427-3.72465.118-5.646,1.04494-1.24717.60672-2.663,1.28092-3.40453,1.11231-.70784-.1685-1.68539-1.3988-2.49435-2.39323C52.95763,14.25277,51.55872,12.5,49.57,12.5s-3.38766,1.75277-4.75282,3.47191c-.79209.99443-1.76964,2.2416-2.47748,2.39323-.75845.1686-2.15735-.5056-3.40453-1.11231-1.92137-.92695-3.91012-1.87076-5.646-1.04494-1.75287.8427-2.2416,3.01682-2.73043,5.12356-.30336,1.33153-.64035,2.84832-1.21343,3.30341-.58985.47186-2.14048.47186-3.50565.47186-2.15725,0-4.382,0-5.59552,1.5169-1.19656,1.5-.70784,3.65727-.23588,5.74715.30336,1.3484.65723,2.86519.32023,3.55626-.32023.65723-1.70226,1.31455-2.9158,1.9045-1.955.92695-3.9775,1.9044-4.41572,3.82577-.42135,1.854.94382,3.573,2.27534,5.22478.87633,1.09544,1.85389,2.32585,1.85389,3.11794s-.97756,2.02249-1.85389,3.11794c-1.33153,1.65176-2.69669,3.37079-2.27534,5.22478.43822,1.92137,2.46071,2.89883,4.41572,3.82577,1.21354.58995,2.59557,1.264,2.9158,1.9045.337.69107-.01687,2.20786-.32023,3.55626-.472,2.08987-.96069,4.24712.23588,5.764,1.21354,1.5,3.4214,1.5,5.57865,1.5.01687.01687.01687,0,.03374,0,1.36516,0,2.89893.01687,3.48878.47186.57308.472.91008,1.97188,1.21343,3.30341.48883,2.10674.97756,4.28086,2.73043,5.12356,1.7359.82583,3.72465-.118,5.646-1.04494,1.24717-.60672,2.663-1.28092,3.40453-1.11231.70784.1685,1.68539,1.3988,2.49435,2.39323C46.18231,85.74723,47.58122,87.5,49.57,87.5s3.38766-1.75277,4.736-3.47191c.809-.99443,1.78651-2.2416,2.49435-2.39323.74158-.1686,2.15735.5056,3.40453,1.11231,1.92137.92695,3.91012,1.87076,5.646,1.04494,1.75287-.8427,2.2416-3.03369,2.73043-5.12356a17.1621,17.1621,0,0,1,.65723-2.4101l.01687-.01687a2.25406,2.25406,0,0,1,.18537-.40448c0-.01687.01687-.03374.01687-.05061,0-.08425.01687-.1685.01687-.25275a1.26231,1.26231,0,0,0-1.264-1.264H58.18231a6.49076,6.49076,0,0,1-4.11236-1.5,6.02822,6.02822,0,0,1-.92695-.92695,5.53977,5.53977,0,0,1-.8427-1.36516,6.493,6.493,0,0,1-.45509-4.163A6.59519,6.59519,0,0,1,58.14867,61.191a4.25593,4.25593,0,0,1,.47186.01687,2.381,2.381,0,0,0,2.27524-1.33153,9.75294,9.75294,0,0,1,8.83155-5.30893,10.267,10.267,0,0,1,2.52809.35387,10.86711,10.86711,0,0,1,2.96621,1.23041,8.80155,8.80155,0,0,1,3.5899,4.66847c.10112.26972.20224.53934.28659.82583a2.67381,2.67381,0,0,0,.97745,1.36516,2.50145,2.50145,0,0,0,.57308.354,5.96736,5.96736,0,0,1,3.53928,3.67414,5.62764,5.62764,0,0,1-5.05618,7.2304H75.3396a1.28265,1.28265,0,0,0-1.07857.60672,1.245,1.245,0,0,0-.18547.65733,1.26238,1.26238,0,0,0,1.264,1.264H78.8115a5.24012,5.24012,0,0,0,.53934-.01687A8.22727,8.22727,0,0,0,85.19921,63.36516ZM81.07,59.67414a12.49559,12.49559,0,0,0-8.427-7.28091.10116.10116,0,0,0,.01687-.06738A23.20722,23.20722,0,1,0,30.86215,63.736a1.21288,1.21288,0,0,0,.97745.48873,1.28292,1.28292,0,0,0,.82583-.30336,1.247,1.247,0,0,0,.20234-1.736A20.6743,20.6743,0,1,1,70.23291,50.52247c-.01687.52247-.05061,1.02807-.10112,1.53366a2.55676,2.55676,0,0,0-.5056-.03364,12.30971,12.30971,0,0,0-10.95506,6.65732c-.18547-.01687-.354-.01687-.53934-.01687a9.04066,9.04066,0,0,0-8.46071,12.01686h-.20224a21.36206,21.36206,0,0,1-5.07305-.65733,1.14578,1.14578,0,0,0-.3371-.03374,1.22833,1.22833,0,0,0-1.19656.85957,1.27681,1.27681,0,0,0,.85957,1.618,23.35444,23.35444,0,0,0,7.264.691,1.52452,1.52452,0,0,0,.18537.26972,9.04532,9.04532,0,0,0,7.01119,3.37079h8.2416c-.10112.42135-.20224.85946-.30336,1.29768-.32023,1.382-.70784,3.10117-1.36516,3.4214-.64046.30336-2.20786-.45509-3.455-1.04494-1.70226-.82583-3.45514-1.66852-5.07305-1.29779-1.55053.354-2.7472,1.83712-3.89325,3.28654-.89331,1.11231-2.00562,2.51122-2.76407,2.51122S47.69921,83.573,46.8059,82.46069c-1.14606-1.44941-2.34272-2.93257-3.89325-3.28654a3.30271,3.30271,0,0,0-.809-.08425,10.456,10.456,0,0,0-4.26409,1.382c-1.24717.58985-2.81458,1.34829-3.455,1.04494-.65733-.32023-1.04494-2.03936-1.34829-3.40453-.42135-1.82025-.8427-3.70789-2.12361-4.71908-1.264-1.01119-3.18542-1.02807-5.05618-1.02807-1.382.03364-3.16855.01687-3.62353-.55621-.45509-.55621-.06748-2.25847.25275-3.62364.40448-1.837.8427-3.72465.118-5.20781-.691-1.44941-2.427-2.27534-4.09549-3.0843-1.28092-.60672-2.88206-1.382-3.03369-2.10674-.15173-.6742.91008-2.02249,1.76964-3.10107,1.1798-1.48315,2.4101-3.01692,2.4101-4.68544s-1.2303-3.20229-2.4101-4.68544c-.85957-1.07857-1.92137-2.42687-1.76964-3.10107.15163-.72471,1.75277-1.48315,3.03369-2.10674,1.66852-.809,3.40453-1.63488,4.09549-3.0843.72471-1.48315.28649-3.37079-.13486-5.20781-.30336-1.36516-.691-3.06743-.23588-3.62364.43812-.55621,2.191-.55621,3.60666-.55621,1.87086,0,3.809,0,5.07305-1.02807,1.28092-1.01119,1.70226-2.89883,2.10674-4.70221.32023-1.382.70784-3.10117,1.36516-3.4214.64046-.30336,2.20786.45509,3.455,1.04494,1.70226.82583,3.45514,1.66852,5.07305,1.29779,1.55053-.354,2.7472-1.83712,3.89325-3.28654.89331-1.11231,2.00562-2.51122,2.76407-2.51122S51.44073,16.427,52.334,17.53931c1.14606,1.44941,2.34272,2.93257,3.89325,3.28654,1.61791.37074,3.37079-.472,5.07305-1.29779,1.24717-.60672,2.81458-1.34829,3.455-1.04494.65733.32023,1.04494,2.03936,1.34829,3.4214.42135,1.80338.8427,3.691,2.12361,4.70221,1.264,1.01119,3.18542,1.02807,5.05618,1.02807,1.46628,0,3.16855-.01687,3.62353.55621.45509.55621.06748,2.25847-.25275,3.62364-.40448,1.837-.8427,3.72465-.118,5.20781.691,1.44941,2.427,2.27534,4.09549,3.0843,1.28092.60672,2.88206,1.382,3.03369,2.10674.15173.6742-.91008,2.02249-1.76964,3.10107C80.716,46.79771,79.4857,48.33148,79.4857,50s1.2303,3.20229,2.4101,4.68544c.85957,1.07857,1.92137,2.42687,1.76964,3.10107C83.53069,58.427,82.24977,59.10116,81.07,59.67414Z"/>
  <path fill="#FFFFFF" d="M40.09511,71.18858a23.402,23.402,0,0,1-6.571-4.42467,1.25831,1.25831,0,0,1,.03675-1.81972l.00021-.0002a1.27294,1.27294,0,0,1,1.75377.03417A20.8722,20.8722,0,0,0,41.0741,68.8571a1.2732,1.2732,0,0,1,.69251,1.61131h0A1.258,1.258,0,0,1,40.09511,71.18858Z"/>
</svg>